<svg width="368" height="49" viewBox="0 0 368 49" fill="none" xmlns="http://www.w3.org/2000/svg">
<rect x="0.5" y="1" width="47" height="47" rx="23.5" stroke="#121212"/>
<path d="M28.4421 19.9576C28.4421 19.4053 28.8898 18.9576 29.4421 18.9576C29.9944 18.9576 30.4421 19.4053 30.4421 19.9576C30.4421 20.5099 29.9944 20.9576 29.4421 20.9576C28.8898 20.9576 28.4421 20.5099 28.4421 19.9576Z" fill="#121212"/>
<path fill-rule="evenodd" clip-rule="evenodd" d="M24.4421 20.2076C21.8187 20.2076 19.6921 22.3342 19.6921 24.9576C19.6921 27.5809 21.8187 29.7076 24.4421 29.7076C27.0654 29.7076 29.1921 27.5809 29.1921 24.9576C29.1921 22.3342 27.0654 20.2076 24.4421 20.2076ZM21.1921 24.9576C21.1921 23.1626 22.6472 21.7076 24.4421 21.7076C26.237 21.7076 27.6921 23.1626 27.6921 24.9576C27.6921 26.7525 26.237 28.2076 24.4421 28.2076C22.6472 28.2076 21.1921 26.7525 21.1921 24.9576Z" fill="#121212"/>
<path fill-rule="evenodd" clip-rule="evenodd" d="M29.7003 15.7906C26.2338 15.4031 22.6504 15.4031 19.1838 15.7906C17.1718 16.0155 15.5475 17.6005 15.3109 19.623C14.8964 23.1673 14.8964 26.7478 15.3109 30.2921C15.5475 32.3147 17.1718 33.8997 19.1838 34.1245C22.6504 34.512 26.2338 34.512 29.7003 34.1245C31.7124 33.8997 33.3367 32.3147 33.5733 30.2921C33.9878 26.7478 33.9878 23.1673 33.5733 19.623C33.3367 17.6005 31.7124 16.0155 29.7003 15.7906ZM19.3505 17.2813C22.7063 16.9062 26.1779 16.9062 29.5337 17.2813C30.8638 17.43 31.9293 18.4796 32.0834 19.7972C32.4844 23.2258 32.4844 26.6894 32.0834 30.1179C31.9293 31.4356 30.8638 32.4852 29.5337 32.6338C26.1779 33.0089 22.7063 33.0089 19.3505 32.6338C18.0203 32.4852 16.9549 31.4356 16.8007 30.1179C16.3998 26.6894 16.3998 23.2258 16.8007 19.7972C16.9549 18.4796 18.0203 17.43 19.3505 17.2813Z" fill="#121212"/>
<rect x="80.5" y="1" width="47" height="47" rx="23.5" stroke="#121212"/>
<path fill-rule="evenodd" clip-rule="evenodd" d="M103.75 14.5C98.3652 14.5 94 18.8652 94 24.25C94 29.6348 98.3652 34 103.75 34C109.135 34 113.5 29.6348 113.5 24.25C113.5 18.8652 109.135 14.5 103.75 14.5ZM95.5 24.25C95.5 19.6937 99.1937 16 103.75 16C108.306 16 112 19.6937 112 24.25C112 28.8063 108.306 32.5 103.75 32.5C102.893 32.5 102.066 32.3692 101.289 32.1266C101.711 31.463 102.047 30.748 102.289 29.9991L102.805 28.0219C103.019 28.3265 103.305 28.5729 103.638 28.7388C103.971 28.9047 104.34 28.9848 104.711 28.9719C107.247 28.9719 109.028 26.6681 109.028 23.8063C109.028 21.0572 106.783 19.0028 103.904 19.0028C100.317 19.0028 98.4115 21.4134 98.4115 24.0319C98.4115 25.255 99.0587 26.7691 100.098 27.2559C100.252 27.3272 100.353 27.2559 100.377 27.1431C100.401 27.0304 100.543 26.461 100.608 26.1995C100.619 26.1581 100.619 26.1143 100.608 26.0729C100.598 26.0315 100.578 25.9933 100.549 25.9616C100.156 25.4085 99.9487 24.7457 99.9553 24.0675C99.9532 23.5807 100.05 23.0986 100.24 22.6503C100.429 22.202 100.708 21.7968 101.059 21.4593C101.41 21.1218 101.825 20.859 102.281 20.6868C102.736 20.5146 103.221 20.4366 103.708 20.4575C104.163 20.4309 104.619 20.4995 105.047 20.6589C105.474 20.8184 105.864 21.0652 106.191 21.3836C106.518 21.7021 106.775 22.0852 106.945 22.5084C107.116 22.9317 107.196 23.3858 107.181 23.8419C107.181 26.0863 106.041 27.6478 104.569 27.6478C104.378 27.6624 104.188 27.631 104.012 27.5562C103.837 27.4813 103.682 27.3653 103.56 27.2179C103.439 27.0706 103.355 26.8962 103.316 26.7095C103.277 26.5229 103.283 26.3294 103.334 26.1456C103.418 25.7954 103.529 25.4347 103.638 25.0832C103.835 24.4455 104.022 23.8381 104.022 23.3788C104.043 23.2296 104.031 23.0777 103.987 22.9335C103.944 22.7894 103.87 22.6564 103.77 22.5436C103.67 22.4308 103.547 22.3409 103.409 22.2801C103.271 22.2193 103.122 22.189 102.972 22.1913C102.14 22.1913 101.469 23.0581 101.469 24.21C101.463 24.6171 101.54 25.0211 101.695 25.3975L100.715 29.5538C100.595 30.3391 100.595 31.1382 100.714 31.9236C100.064 31.6661 99.4539 31.3282 98.8967 30.9222C97.9196 30.2084 97.1032 29.2848 96.5129 28.2093C96.2807 27.7862 96.0871 27.3462 95.933 26.8946C95.6522 26.0644 95.5 25.175 95.5 24.25Z" fill="#121212"/>
<rect x="160.5" y="1" width="47" height="47" rx="23.5" stroke="#121212"/>
<path fill-rule="evenodd" clip-rule="evenodd" d="M182.238 16.0377C183.222 15.0531 184.558 14.5 185.95 14.5H188.65C189.064 14.5 189.4 14.8358 189.4 15.25V18.85C189.4 19.2642 189.064 19.6 188.65 19.6H185.95C185.91 19.6 185.872 19.6158 185.844 19.6439C185.816 19.6721 185.8 19.7102 185.8 19.75V21.7H188.65C188.881 21.7 189.099 21.8064 189.241 21.9884C189.383 22.1705 189.434 22.4078 189.378 22.6319L188.478 26.2319C188.394 26.5658 188.094 26.8 187.75 26.8H185.8V33.25C185.8 33.6642 185.464 34 185.05 34H181.45C181.036 34 180.7 33.6642 180.7 33.25V26.8H178.75C178.336 26.8 178 26.4642 178 26.05V22.45C178 22.0358 178.336 21.7 178.75 21.7H180.7V19.75C180.7 18.3576 181.253 17.0223 182.238 16.0377ZM185.95 16C184.955 16 184.002 16.3951 183.298 17.0983C182.595 17.8016 182.2 18.7554 182.2 19.75V22.45C182.2 22.8642 181.864 23.2 181.45 23.2H179.5V25.3H181.45C181.864 25.3 182.2 25.6358 182.2 26.05V32.5H184.3V26.05C184.3 25.6358 184.636 25.3 185.05 25.3H187.164L187.689 23.2H185.05C184.636 23.2 184.3 22.8642 184.3 22.45V19.75C184.3 19.3124 184.474 18.8927 184.783 18.5833C185.093 18.2738 185.512 18.1 185.95 18.1H187.9V16H185.95Z" fill="#121212"/>
<rect x="240.5" y="1" width="47" height="47" rx="23.5" stroke="#121212"/>
<path fill-rule="evenodd" clip-rule="evenodd" d="M266.772 15.5809C267.28 15.4939 267.849 15.4648 268.385 15.5554C269.342 15.7173 270.226 16.162 270.924 16.8288C271.381 16.8391 271.83 16.7492 272.227 16.6209C272.563 16.5123 272.847 16.3813 273.046 16.2776C273.145 16.2261 273.221 16.1821 273.271 16.1524C273.296 16.1375 273.314 16.1263 273.325 16.1195L273.334 16.1134C273.631 15.9157 274.026 15.9542 274.279 16.2057C274.532 16.4573 274.573 16.8522 274.376 17.1501C274.169 17.4654 273.88 18.0275 273.557 18.6572C273.506 18.7562 273.455 18.8569 273.402 18.9586C273.217 19.3186 273.027 19.6824 272.85 19.9945C272.739 20.1905 272.62 20.3895 272.5 20.5614V20.8352C272.508 21.8408 272.392 22.8412 272.158 23.8144C272.011 24.4268 271.817 25.0283 271.576 25.6137C270.954 27.1304 270.036 28.5078 268.875 29.6656C267.714 30.8233 266.334 31.7382 264.816 32.3567C263.299 32.9747 261.675 33.2845 260.037 33.2681C257.662 33.2701 255.338 32.5861 253.343 31.2982C253.049 31.1085 252.926 30.7409 253.045 30.4121C253.164 30.0834 253.495 29.8808 253.842 29.9238C254.143 29.9609 254.445 29.9791 254.748 29.9781C255.835 29.975 256.902 29.7348 257.876 29.2821C257.566 29.1412 257.271 28.9675 256.994 28.7627C256.183 28.1608 255.579 27.3208 255.267 26.3597C255.186 26.1099 255.241 25.8359 255.413 25.6374C255.416 25.6338 255.419 25.6303 255.422 25.6268C255.239 25.4631 255.067 25.285 254.909 25.0933C254.198 24.2311 253.806 23.1497 253.8 22.032L253.8 22.0281L253.8 21.9781C253.8 21.7122 253.941 21.4662 254.17 21.3315C254.228 21.2973 254.29 21.2716 254.353 21.2544C254.015 20.5793 253.839 19.8339 253.84 19.0776C253.84 18.2208 254.063 17.3789 254.489 16.6354C254.612 16.4207 254.833 16.2805 255.08 16.2605C255.326 16.2405 255.567 16.3434 255.722 16.5354C256.685 17.7215 257.886 18.6917 259.248 19.3832C259.948 19.7386 260.683 20.0163 261.439 20.2128C261.862 20.3229 262.293 20.4075 262.728 20.4659C262.709 19.7427 262.851 19.0198 263.151 18.3519C263.591 17.372 264.343 16.5659 265.29 16.0598C265.692 15.8454 266.224 15.6747 266.772 15.5809ZM255.493 23.1284C255.623 23.4933 255.816 23.8357 256.066 24.1388C256.557 24.7343 257.239 25.1419 257.996 25.2925C258.334 25.3596 258.582 25.6475 258.599 25.9909C258.616 26.3344 258.397 26.6455 258.068 26.7456C257.796 26.8285 257.517 26.8863 257.234 26.9184C257.421 27.1589 257.64 27.3743 257.888 27.5578C258.449 27.9739 259.126 28.2048 259.825 28.2182C260.141 28.2243 260.42 28.429 260.521 28.7295C260.622 29.03 260.523 29.3615 260.274 29.5575C259.225 30.383 258.011 30.9587 256.726 31.2526C257.791 31.5938 258.909 31.7695 260.039 31.7681L260.048 31.7681C261.488 31.783 262.917 31.5109 264.25 30.9676C265.584 30.4242 266.796 29.6206 267.816 28.6036C268.835 27.5865 269.642 26.3765 270.189 25.0442C270.4 24.53 270.57 24.0015 270.7 23.4636C270.906 22.6079 271.007 21.7282 271 20.8439L271 20.8381V20.3081C271 20.1262 271.066 19.9506 271.186 19.8138C271.255 19.7347 271.376 19.5522 271.545 19.2543C271.706 18.9712 271.884 18.6313 272.069 18.2721C272.08 18.2504 272.091 18.2285 272.102 18.2066C271.623 18.3107 271.079 18.3653 270.509 18.3037C270.329 18.2842 270.162 18.1999 270.039 18.0665C269.536 17.5212 268.866 17.1582 268.135 17.0344C267.81 16.9795 267.418 16.9921 267.025 17.0594C266.598 17.1326 266.226 17.2606 265.997 17.3828C265.343 17.7323 264.823 18.2892 264.52 18.966C264.216 19.6428 264.145 20.4012 264.319 21.1224C264.375 21.3523 264.318 21.5948 264.167 21.7769C264.016 21.9589 263.788 22.0591 263.552 22.0471C262.709 22.0045 261.874 21.8758 261.061 21.6645C260.202 21.441 259.366 21.1251 258.569 20.7207C257.396 20.1253 256.328 19.3482 255.404 18.4205C255.361 18.6361 255.34 18.8561 255.34 19.0776L255.34 19.0795C255.339 19.6302 255.474 20.1726 255.733 20.6585C255.993 21.1443 256.368 21.5585 256.826 21.8642C257.104 22.0497 257.226 22.3968 257.125 22.7153C257.024 23.0338 256.724 23.2469 256.39 23.2378C256.087 23.2296 255.787 23.1928 255.493 23.1284Z" fill="#121212"/>
<rect x="320.5" y="1" width="47" height="47" rx="23.5" stroke="#121212"/>
<path fill-rule="evenodd" clip-rule="evenodd" d="M338.381 26.2696C338.424 26.2844 338.469 26.2948 338.513 26.3012C338.561 26.4144 338.623 26.5607 338.696 26.7318C338.873 27.1494 339.111 27.7143 339.357 28.3035C339.86 29.5052 340.366 30.7439 340.478 31.0985C340.617 31.5368 340.763 31.8348 340.923 32.0383C341.006 32.1435 341.101 32.2353 341.213 32.3049C341.269 32.3399 341.329 32.3686 341.391 32.39C341.394 32.391 341.396 32.3919 341.399 32.3928C341.719 32.5136 342.011 32.4633 342.194 32.4018C342.291 32.3688 342.37 32.3291 342.426 32.2969C342.455 32.2804 342.479 32.2651 342.498 32.2521L342.503 32.2491L345.329 30.4866L348.594 32.9894C348.642 33.0263 348.694 33.0573 348.75 33.0816C349.142 33.2527 349.522 33.3124 349.879 33.2636C350.236 33.2149 350.519 33.0651 350.73 32.8964C350.936 32.7313 351.076 32.5463 351.163 32.4089C351.208 32.3387 351.241 32.2766 351.265 32.2291C351.277 32.2052 351.286 32.1846 351.294 32.1681L351.303 32.1463L351.306 32.1377L351.308 32.1341L351.309 32.1324L351.309 32.1308C351.326 32.0879 351.34 32.0435 351.349 31.9982L354.329 16.9727C354.338 16.9247 354.343 16.8758 354.343 16.8268C354.343 16.3868 354.177 15.9684 353.788 15.7145C353.454 15.4975 353.083 15.4882 352.849 15.506C352.596 15.5252 352.362 15.5877 352.205 15.6376C352.123 15.6635 352.055 15.6886 352.006 15.7077C351.981 15.7173 351.961 15.7256 351.945 15.7319L351.934 15.7367L335.22 22.2932L335.218 22.294C335.207 22.2979 335.194 22.303 335.178 22.3093C335.145 22.3219 335.102 22.3396 335.051 22.3626C334.952 22.4074 334.814 22.4773 334.672 22.5747C334.444 22.7303 333.922 23.1564 334.01 23.8597C334.08 24.4208 334.464 24.7654 334.699 24.9311C334.827 25.0221 334.949 25.0871 335.038 25.1295C335.08 25.1491 335.165 25.1839 335.203 25.1991L335.212 25.2029L338.381 26.2696ZM352.519 17.1179L352.517 17.1189C352.508 17.1225 352.5 17.126 352.491 17.1293L335.757 23.6938C335.749 23.6972 335.74 23.7005 335.731 23.7036L335.722 23.7071C335.711 23.7113 335.693 23.7186 335.67 23.7288C335.658 23.7346 335.644 23.741 335.63 23.7478C335.649 23.7584 335.667 23.7675 335.683 23.7751C335.698 23.7824 335.71 23.7874 335.717 23.79L338.859 24.848C338.917 24.8674 338.97 24.893 339.02 24.924L349.396 18.8495L349.406 18.8437C349.414 18.8393 349.423 18.8335 349.435 18.8268C349.459 18.8135 349.491 18.7957 349.53 18.776C349.602 18.7394 349.717 18.685 349.847 18.6449C349.937 18.6169 350.204 18.5382 350.492 18.6306C350.67 18.6877 350.854 18.8103 350.974 19.018C351.033 19.1212 351.065 19.2248 351.08 19.3197C351.121 19.4692 351.115 19.6168 351.083 19.7442C351.014 20.0187 350.821 20.2329 350.645 20.3966C350.495 20.5371 348.55 22.4129 346.631 24.2647C345.674 25.1881 344.726 26.1025 344.018 26.7859L343.553 27.2349L349.425 31.7367C349.56 31.7849 349.639 31.7825 349.676 31.7774C349.72 31.7714 349.756 31.7545 349.793 31.7252C349.834 31.6924 349.87 31.648 349.896 31.6057L349.898 31.604L352.788 17.031C352.745 17.0413 352.702 17.0536 352.66 17.0669C352.613 17.082 352.574 17.0963 352.548 17.1064C352.535 17.1113 352.526 17.1151 352.521 17.1172L352.519 17.1179ZM344.058 29.5118L342.886 28.6136L342.602 30.4193L344.058 29.5118ZM341.811 26.8314L342.976 25.7067C343.685 25.0232 344.632 24.1088 345.589 23.1852L346.562 22.247L340.042 26.0638L340.077 26.1463C340.254 26.5654 340.494 27.1327 340.741 27.7251C340.927 28.168 341.12 28.6344 341.297 29.0662L341.58 27.2658C341.607 27.0922 341.692 26.942 341.811 26.8314Z" fill="#121212"/>
</svg>
